<?xml version="1.0" encoding="UTF-8"?>
<svg id="Layer_1" data-name="Layer 1" xmlns="http://www.w3.org/2000/svg" viewBox="0 0 622 622">
  <defs>
    <style>
      .cls-1 {
        fill: #1f51ff;
      }

      .cls-2 {
        fill: #39ff14;
      }
    </style>
  </defs>
  <path class="cls-1" d="m311,0C139.24,0,0,139.24,0,311s139.24,311,311,311,311-139.24,311-311S482.76,0,311,0Zm-19.37,496.65h-23.76v-59.4h-95.03c-8.71,0-16.67-2.14-23.88-6.42-7.21-4.28-12.95-10.01-17.22-17.22-4.28-7.21-6.42-15.16-6.42-23.88v-59.4h23.76v59.4c0,6.5,2.34,12.08,7.01,16.75,4.67,4.67,10.25,7.01,16.75,7.01h95.03v-83.15h23.76v166.31Zm199.86-83.15c0,11.56-2.14,22.37-6.41,32.43-4.28,10.06-10.22,18.89-17.82,26.49s-16.43,13.54-26.49,17.82c-10.06,4.28-20.79,6.42-32.19,6.42h-17.58c-11.4,0-22.14-2.14-32.19-6.42-10.06-4.28-18.89-10.25-26.49-17.94-7.6-7.68-13.54-16.55-17.82-26.61-4.28-10.06-6.41-20.79-6.41-32.19v-83.15h23.76v83.15c0,10.93,2.65,20.87,7.96,29.82,5.3,8.95,12.47,16.12,21.5,21.5,9.03,5.39,18.93,8.08,29.7,8.08h17.58c10.93,0,20.87-2.69,29.82-8.08,8.95-5.38,16.07-12.55,21.38-21.5,5.3-8.95,7.96-18.89,7.96-29.82v-83.15h24l-.24,83.15Zm1.24-87.85h-25v-142.55h-6.48c-9.4,0-17.95,2.65-25.65,7.96-7.7,5.31-10.87,12.47-15.5,21.5-4.63,9.03-6.95,19.01-6.95,29.94v83.15h-23.44v-83.15c0-10.93-2.28-20.91-6.85-29.94-4.57-9.03-10.73-16.19-18.5-21.5-7.77-5.3-16.35-7.96-25.75-7.96h-6.89v142.55h-24.59v-73.73c-5.04,7.4-11.49,13.44-19.36,18.13-9.03,5.39-19.01,8.08-29.93,8.08h-95.51v-23.52h95.51c6.65,0,12.67-1.62,18.06-4.87,5.38-3.24,9.66-7.6,12.83-13.07,3.17-5.46,4.75-11.44,4.75-17.94s-1.59-12.67-4.75-18.06c-3.17-5.38-7.45-9.66-12.83-12.83-5.39-3.17-11.4-4.75-18.06-4.75h-108.81v142.55h-23.76v-166.31h132.57c10.93,0,20.91,2.65,29.93,7.96,7.87,4.62,14.31,10.66,19.36,18.11v-26.07h31.48c12.94,0,24.83,3.72,35.67,11.17,10.83,7.45,19.38,17.19,25.65,29.22,6.27-12.03,14.82-21.78,25.65-29.22,10.83-7.44,22.72-11.17,35.67-11.17h31.48v166.31Z"/>
  <path class="cls-2" d="m124.96,330.82h23.76v59.4c0,6.5,2.34,12.08,7.01,16.75,4.67,4.67,10.25,7.01,16.75,7.01h95.03v-83.15h23.76v166.31h-23.76v-59.4h-95.03c-8.71,0-16.67-2.14-23.88-6.42-7.21-4.28-12.95-10.01-17.22-17.22-4.28-7.21-6.42-15.16-6.42-23.88v-59.4Z"/>
</svg>